<svg xmlns="http://www.w3.org/2000/svg" width="46.855" height="37.484" viewBox="0 0 46.855 37.484"><defs><style>.a{fill:#777;}</style></defs><path class="a" d="M46.513,6H4.343A2.35,2.35,0,0,0,2,8.343V23.961A2.35,2.35,0,0,0,4.343,26.3h42.17a2.35,2.35,0,0,0,2.343-2.343V8.343A2.35,2.35,0,0,0,46.513,6ZM5.9,7.562H44.951v8.59a.781.781,0,0,1-.781.781H6.686a.781.781,0,0,1-.781-.781ZM44.17,24.742H6.686v-3.9H44.17Zm3.124-.781a.781.781,0,0,1-.781.781h-.781V20.057a.781.781,0,0,0-.781-.781H5.9a.781.781,0,0,0-.781.781v4.686H4.343a.781.781,0,0,1-.781-.781V8.343a.781.781,0,0,1,.781-.781v8.59a2.35,2.35,0,0,0,2.343,2.343H44.17a2.35,2.35,0,0,0,2.343-2.343V7.562a.781.781,0,0,1,.781.781Z" transform="translate(-2 -6)"/><path class="a" d="M9,26H44.923v1.562H9Z" transform="translate(-3.534 -10.382)"/><path class="a" d="M32.882,35H31.32a5.524,5.524,0,0,1-.4,2.207,7.862,7.862,0,0,0,0,5.475,6.325,6.325,0,0,1,0,4.418,7.05,7.05,0,0,0-.492,2.738h1.562a5.536,5.536,0,0,1,.4-2.209,7.865,7.865,0,0,0,0-5.476,6.32,6.32,0,0,1,0-4.416A7.043,7.043,0,0,0,32.882,35Z" transform="translate(-8.228 -12.353)"/><path class="a" d="M14.882,35H13.32a5.523,5.523,0,0,1-.4,2.207,7.862,7.862,0,0,0,0,5.475,6.326,6.326,0,0,1,0,4.418,7.049,7.049,0,0,0-.492,2.738h1.562a5.536,5.536,0,0,1,.4-2.209,7.865,7.865,0,0,0,0-5.476,6.32,6.32,0,0,1,0-4.416A7.043,7.043,0,0,0,14.882,35Z" transform="translate(-4.285 -12.353)"/><path class="a" d="M50.882,35H49.32a5.523,5.523,0,0,1-.4,2.207,7.862,7.862,0,0,0,0,5.475,6.325,6.325,0,0,1,0,4.418,7.05,7.05,0,0,0-.492,2.738h1.562a5.536,5.536,0,0,1,.4-2.209,7.865,7.865,0,0,0,0-5.476,6.32,6.32,0,0,1,0-4.416A7.043,7.043,0,0,0,50.882,35Z" transform="translate(-12.171 -12.353)"/><path class="a" d="M52,10h1.562v3.9H52Z" transform="translate(-12.954 -6.876)"/><path class="a" d="M52,16h1.562v1.562H52Z" transform="translate(-12.954 -8.191)"/></svg>