<svg xmlns="http://www.w3.org/2000/svg" width="47.065" height="43.928" viewBox="0 0 47.065 43.928"><defs><style>.a{fill:#777;}</style></defs><g transform="translate(0 0)"><path class="a" d="M43.712,39.6h-.784V23.127a7.03,7.03,0,0,0-7.06-7.06c-3.472,0-5.969,2.574-6.248,6.347a3.877,3.877,0,0,0-3.165,3.851.741.741,0,0,0,.784.784h6.275a.741.741,0,0,0,.784-.784,3.877,3.877,0,0,0-3.1-3.839c.234-2.493,1.731-4.789,4.673-4.789a5.457,5.457,0,0,1,5.491,5.491V39.6H17.75A3.877,3.877,0,0,0,13.9,36.462a4.1,4.1,0,0,0-3.138-1.569,3.878,3.878,0,0,0-3.451,2.118,4.66,4.66,0,0,0-2.04-.549A3.877,3.877,0,0,0,1.429,39.6H1.353a2.353,2.353,0,0,0,0,4.707H2.3L4.413,52.7a5.534,5.534,0,0,0,5.334,4.157h.628L9.354,58.9a.692.692,0,0,0,.314,1.02.472.472,0,0,0,.314.078.824.824,0,0,0,.706-.392l1.373-2.745H33.828l1.334,2.667a.754.754,0,0,0,.706.471c.157,0,.235,0,.314-.157a.826.826,0,0,0,.314-1.02l-.983-1.965a5.554,5.554,0,0,0,5.14-4.075l2.136-8.472h.923a2.353,2.353,0,1,0,0-4.706ZM32.652,25.48H28.18a2.385,2.385,0,0,1,2.275-1.569A2.285,2.285,0,0,1,32.652,25.48ZM5.275,38.031a2.636,2.636,0,0,1,1.883.863.71.71,0,0,0,.784.235.76.76,0,0,0,.549-.628,2.429,2.429,0,0,1,2.353-2.04,2.192,2.192,0,0,1,2.04,1.177.789.789,0,0,0,.863.392h.235a2.285,2.285,0,0,1,2.2,1.569H3.079A2.285,2.285,0,0,1,5.275,38.031ZM39.241,52.307A4.025,4.025,0,0,1,35.4,55.288H9.825a4.025,4.025,0,0,1-3.844-2.981l-2.04-8H41.123Zm4.471-9.57H1.353a.784.784,0,0,1,0-1.569H43.712a.784.784,0,0,1,0,1.569Z" transform="translate(1 -16.067)"/><path class="a" d="M298.451,154.561a.741.741,0,0,0,.784-.784v-.392a.784.784,0,1,0-1.569,0v.392A.741.741,0,0,0,298.451,154.561Z" transform="translate(-270.212 -140.049)"/><path class="a" d="M298.451,189.166a.786.786,0,0,0,.784-.784v-.863a.784.784,0,0,0-1.569,0v.863A.741.741,0,0,0,298.451,189.166Z" transform="translate(-270.212 -171.046)"/><path class="a" d="M298.451,227.1a.741.741,0,0,0,.784-.784v-.392a.784.784,0,1,0-1.569,0v.392A.741.741,0,0,0,298.451,227.1Z" transform="translate(-270.212 -205.916)"/><path class="a" d="M332.584,154.561a.741.741,0,0,0,.784-.784v-.392a.784.784,0,1,0-1.569,0v.392A.741.741,0,0,0,332.584,154.561Z" transform="translate(-301.208 -140.049)"/><path class="a" d="M331.8,188.38a.741.741,0,0,0,.784.784.786.786,0,0,0,.784-.784v-.863a.784.784,0,0,0-1.569,0Z" transform="translate(-301.208 -171.045)"/><path class="a" d="M331.8,226.31a.784.784,0,1,0,1.569,0v-.392a.784.784,0,0,0-1.569,0Z" transform="translate(-301.208 -205.915)"/><path class="a" d="M366.718,154.561a.741.741,0,0,0,.784-.784v-.392a.784.784,0,1,0-1.569,0v.392A.741.741,0,0,0,366.718,154.561Z" transform="translate(-332.204 -140.049)"/><path class="a" d="M365.933,188.38a.741.741,0,0,0,.784.784.786.786,0,0,0,.784-.784v-.863a.784.784,0,1,0-1.569,0v.863Z" transform="translate(-332.203 -171.045)"/><path class="a" d="M365.933,226.31a.784.784,0,1,0,1.569,0v-.392a.784.784,0,0,0-1.569,0Z" transform="translate(-332.203 -205.915)"/></g></svg>