<svg xmlns="http://www.w3.org/2000/svg" width="43.15" height="43.15" viewBox="0 0 43.15 43.15"><defs><style>.a{fill:#777;}</style></defs><g transform="translate(0 18.698)"><path class="a" d="M27.328,216.7v-6.545A2.16,2.16,0,0,0,25.171,208H5.034a2.16,2.16,0,0,0-2.158,2.158V216.7A3.6,3.6,0,0,0,0,220.226v11.507a.719.719,0,0,0,.719.719H3.6a.719.719,0,0,0,.719-.719v-2.158H25.89v2.158a.719.719,0,0,0,.719.719h2.877a.719.719,0,0,0,.719-.719V220.226A3.6,3.6,0,0,0,27.328,216.7ZM4.315,210.158a.72.72,0,0,1,.719-.719H25.171a.72.72,0,0,1,.719.719v6.473H24.452v-2.877a2.16,2.16,0,0,0-2.158-2.158H17.979a2.16,2.16,0,0,0-2.158,2.158v2.877H14.383v-2.877a2.16,2.16,0,0,0-2.158-2.158H7.911a2.16,2.16,0,0,0-2.158,2.158v2.877H4.315Zm18.7,3.6v2.877H17.26v-2.877a.72.72,0,0,1,.719-.719h4.315A.72.72,0,0,1,23.013,213.753Zm-10.068,0v2.877H7.192v-2.877a.72.72,0,0,1,.719-.719h4.315A.72.72,0,0,1,12.945,213.753Zm15.822,17.26H27.328v-2.158a.719.719,0,0,0-.719-.719H3.6a.719.719,0,0,0-.719.719v2.158H1.438V225.26H28.767Zm0-7.192H1.438v-3.6A2.16,2.16,0,0,1,3.6,218.068H26.609a2.16,2.16,0,0,1,2.158,2.157Z" transform="translate(0 -208)"/></g><g transform="translate(31.643 27.328)"><path class="a" d="M362.788,304H352.719a.719.719,0,0,0-.719.719v10.788h1.438v-4.315h8.63v4.315h1.438V304.719A.719.719,0,0,0,362.788,304Zm-.719,5.753h-8.63v-4.315h8.63Z" transform="translate(-352 -304)"/></g><g transform="translate(36.47 29.79)"><g transform="translate(0 0)"><rect class="a" width="2.672" height="2.672"/></g></g><g transform="translate(33.801 16.541)"><path class="a" d="M383.153,188.806l-1.438-4.315a.719.719,0,0,0-.682-.491h-2.877a.719.719,0,0,0-.683.492l-1.438,4.315a.719.719,0,0,0,.682.946h2.158v2.158h-1.438v1.438h4.315v-1.438h-1.438v-2.158h2.157a.72.72,0,0,0,.683-.947Zm-5.438-.491.959-2.877h1.84l.959,2.877Z" transform="translate(-375.997 -184)"/></g><g transform="translate(0 0)"><path class="a" d="M42.725,9.412,21.869.063a.723.723,0,0,0-.588,0L.425,9.412A.72.72,0,0,0,0,10.068V18.7H1.438V10.534L21.575,1.507l20.137,9.027V18.7H43.15v-8.63A.72.72,0,0,0,42.725,9.412Z" transform="translate(0 0)"/></g><g transform="translate(16.541 5.753)"><path class="a" d="M194,68.2l-1.419.239a3.541,3.541,0,0,1,.05.6,3.592,3.592,0,1,1-2.4-3.391l.479-1.356a5.035,5.035,0,1,0,3.356,4.747A5.089,5.089,0,0,0,194,68.2Z" transform="translate(-184 -64)"/></g><g transform="translate(19.628 5.964)"><path class="a" d="M224.817,66.344l-4.526,4.526-.93-.93-1.017,1.017,1.438,1.438a.719.719,0,0,0,1.017,0l5.034-5.034Z" transform="translate(-218.344 -66.344)"/></g></svg>