<svg xmlns="http://www.w3.org/2000/svg" width="28.177" height="48.303" viewBox="0 0 28.177 48.303"><defs><style>.a{fill:#777;}</style></defs><g transform="translate(0)"><path class="a" d="M194.013,312A2.015,2.015,0,0,0,192,314.013v.4h1.61v-.4a.4.4,0,0,1,.805,0v.069l-2.179,2.179a.805.805,0,0,0-.236.569v.805a.805.805,0,0,0,.805.805h3.22v-1.61h-2.082l1.846-1.846a.8.8,0,0,0,.236-.569v-.4A2.015,2.015,0,0,0,194.013,312Z" transform="translate(-183.949 -282.213)"/><path class="a" d="M156.025,248A4.03,4.03,0,0,0,152,252.025v2.415a4.04,4.04,0,0,0,2.012,3.486l.806-1.394a2.425,2.425,0,0,1-1.208-2.093v-2.415a2.415,2.415,0,1,1,4.83,0v1.61h1.61v-1.61A4.03,4.03,0,0,0,156.025,248Z" transform="translate(-147.975 -224.653)"/><path class="a" d="M124.493,25.661l2.979,3.723a.805.805,0,0,0,.628.3h5.635a.805.805,0,0,0,.805.805,15.658,15.658,0,0,0,4.961-.805l.124-.041a.805.805,0,0,0,.55-.764V17.61a.805.805,0,0,0-.55-.764l-.124-.041A15.657,15.657,0,0,0,134.541,16a.805.805,0,0,0-.805.805H128.1a.805.805,0,0,0-.629.3l-2.979,3.723h-5.248a1.612,1.612,0,0,0-1.61,1.61v4.83h-.805a.805.805,0,0,0-.805.805v2.887l-2.984,2.984a.8.8,0,0,0-.236.569V59.945l-.069.069a2.513,2.513,0,0,0,1.777,4.29h11.075a2.513,2.513,0,0,0,1.777-4.29l-.069-.069V34.516a.805.805,0,0,0-.236-.569l-2.984-2.984V28.076a.805.805,0,0,0-.805-.805h-.805v-1.61Zm10.853-8.028a14.038,14.038,0,0,1,3.22.565v10.1a14.039,14.039,0,0,1-3.22.565Zm-9.661,4.285,1.61-2.013v6.681l-1.61-2.013Zm8.051,6.158h-1.61v-1.61h-1.61v1.61h-1.61V18.415h4.83Zm-9.661-4.025h-1.61V22.44h1.61Zm-1.61,4.83v1.61h-4.83v-1.61Zm3.22,30.592h-1.61v1.61h2.082l.069.069a.9.9,0,0,1-.638,1.541H114.512a.9.9,0,0,1-.638-1.541l.069-.069h8.522v-1.61h-8.051V35.321h8.051v-1.61h-6.912l1.61-1.61h5.773l2.749,2.749Zm-6.44-32.2V22.44h1.61v4.83Z" transform="translate(-111.999 -16)"/><rect class="a" width="1.336" height="1.336" transform="translate(19.205 6.886)"/><rect class="a" width="1.336" height="1.336" transform="translate(19.205 4.214)"/></g></svg>