<svg xmlns="http://www.w3.org/2000/svg" width="41.205" height="41.205" viewBox="0 0 41.205 41.205"><defs><style>.a{fill:none;}.b{fill:#83af40;}</style></defs><path class="a" d="M0,0H41.205V41.205H0ZM0,0H41.205V41.205H0Z"/><path class="b" d="M21.809,2.378,12.3,11.89a3.43,3.43,0,0,0-1,2.421V31.462A3.444,3.444,0,0,0,14.735,34.9H30.187a3.458,3.458,0,0,0,3.159-2.077l5.6-13.066A5.158,5.158,0,0,0,34.2,12.576H24.5l1.631-7.863a2.589,2.589,0,0,0-.7-2.352,2.554,2.554,0,0,0-3.623.017ZM4.434,34.9a3.444,3.444,0,0,0,3.434-3.434V17.727a3.434,3.434,0,1,0-6.868,0V31.462A3.444,3.444,0,0,0,4.434,34.9Z" transform="translate(0.717 1.159)"/></svg>