<svg xmlns="http://www.w3.org/2000/svg" width="44.766" height="35.813" viewBox="0 0 44.766 35.813"><defs><style>.a{fill:#777;}</style></defs><path class="a" d="M44.02,6H.746A.745.745,0,0,0,0,6.746V35.1a.745.745,0,0,0,.746.746h19.4v2.238H16.414v3.731H28.352V38.082H24.621V35.844h19.4a.745.745,0,0,0,.746-.746V6.746A.745.745,0,0,0,44.02,6ZM26.86,39.575v.746H17.906v-.746h3.731V35.844h1.492v3.731Zm16.414-5.223H1.492V7.492H43.274Z" transform="translate(0 -6)"/><path class="a" d="M44.59,27.653H35.17l-.063-.056a4.131,4.131,0,0,0-.839-.578l-3.448-2.23-.072-.041a3.3,3.3,0,0,0-.806-.245c-.081-.016-.187-.04-.274-.062v-.971l.1-.072a3.557,3.557,0,0,0,.884-.722,11.418,11.418,0,0,0,1.365-2.366A2.11,2.11,0,0,0,33.4,18.542V16.867a1.383,1.383,0,0,0-.358-.892,1.56,1.56,0,0,1-.388-.985V14.2C32.606,12.4,31.3,9,26.684,9s-5.922,3.4-5.969,5.223v.766a1.556,1.556,0,0,1-.387.984,1.387,1.387,0,0,0-.359.894v1.675a2.01,2.01,0,0,0,1.009,1.522A6.683,6.683,0,0,0,23.7,23.151v.99a5.487,5.487,0,0,1-1.056.6c-.164.078-.309.148-.433.216l-3.5,2.029a4.119,4.119,0,0,0-.845.619l-.051.048H14v5.223H44.59Zm-21.648-1.4c.087-.048.207-.1.342-.169.85-.4,1.908-.907,1.908-1.826V22.288l-.389-.212c-.587-.32-2.173-1.419-2.454-2.646l-.068-.3-.254-.165c-.461-.3-.548-.451-.566-.428v-1.6l.012-.015a3.054,3.054,0,0,0,.734-1.941v-.747c0-.153.148-3.75,4.477-3.75,4.22,0,4.463,3.369,4.477,3.731v.766a3.109,3.109,0,0,0,.746,1.96v1.582a1.212,1.212,0,0,1-.693.492l-.371.114-.119.37a9,9,0,0,1-1.248,2.258c-.077.076-.385.288-.55.4a3.174,3.174,0,0,0-.564.436l-.186.213v1.851c0,.989.986,1.2,1.459,1.294a2.849,2.849,0,0,1,.418.107L32.5,27.653H20.537ZM43.1,31.383H15.492V29.145H43.1Z" transform="translate(-3.555 -6.762)"/><path class="a" d="M53.477,10H49v4.477h4.477Zm-1.492,2.984H50.492V11.492h1.492Z" transform="translate(-12.441 -7.016)"/><path class="a" d="M10.223,34H5v5.223h5.223ZM8.731,37.731H6.492V35.492H8.731Z" transform="translate(-1.269 -13.109)"/></svg>