<svg xmlns="http://www.w3.org/2000/svg" width="37.878" height="42.87" viewBox="0 0 37.878 42.87"><defs><style>.a,.c{fill:#aeb0b0;}.b{fill:#fff;}.c{opacity:0.86;}.d{fill:#dedede;}.e{fill:#554e56;}.f{fill:#83af40;}</style></defs><g transform="translate(-29.376 0)"><path class="a" d="M64.7,364.746H31.925a2.549,2.549,0,0,1-2.549-2.549V358.65l37.878-6.883V362.2A2.549,2.549,0,0,1,64.7,364.746Z" transform="translate(0 -321.875)"/><path class="b" d="M57.769,78.545H31.93a2.554,2.554,0,0,1-2.554-2.554V44.328a2.554,2.554,0,0,1,2.554-2.554H64.7a2.554,2.554,0,0,1,2.554,2.554V69.061c0,.677-1.544,1.327-2.023,1.806l-5.656,5.656C59.1,77,58.446,78.545,57.769,78.545Z" transform="translate(0 -38.224)"/><path class="c" d="M352.231,361.1a2.553,2.553,0,0,0,1.806-.748l6.943-6.943a2.554,2.554,0,0,0,.748-1.806v-1.034a2.092,2.092,0,0,1-2.092,2.092h-4.254a2.092,2.092,0,0,0-2.092,2.092v4.254A2.092,2.092,0,0,1,351.2,361.1h1.034Z" transform="translate(-294.474 -320.782)"/><path class="d" d="M67.257,44.319v6.558H29.38V44.319a2.55,2.55,0,0,1,2.549-2.549H64.708A2.55,2.55,0,0,1,67.257,44.319Z" transform="translate(-0.004 -38.221)"/><g transform="translate(33.403 3.549)"><path class="a" d="M79.959,46.22H78.708a1.94,1.94,0,0,1-1.938-1.937V41.77h1.275v2.512a.664.664,0,0,0,.664.663C79.06,44.945,80.311,46.22,79.959,46.22Z" transform="translate(-76.77 -41.77)"/><g transform="translate(23.152)"><path class="a" d="M352.419,46.22h-1.251a1.94,1.94,0,0,1-1.937-1.937V41.77H350.5v2.512a.664.664,0,0,0,.663.663A2.229,2.229,0,0,1,352.419,46.22Z" transform="translate(-349.23 -41.77)"/></g></g><g transform="translate(34.654 0)"><path class="e" d="M94.387,3.55V1.938a.664.664,0,0,0-.663-.663h-.293a.664.664,0,0,0-.663.663V6.061a.664.664,0,0,0,.663.663.637.637,0,0,1,0,1.275,1.94,1.94,0,0,1-1.938-1.938V1.938A1.94,1.94,0,0,1,93.431,0h.293a1.94,1.94,0,0,1,1.938,1.938V3.55Z" transform="translate(-91.493 0)"/><g transform="translate(23.152)"><path class="e" d="M366.844,3.55V1.938a.664.664,0,0,0-.663-.663h-.293a.664.664,0,0,0-.663.663V6.061a.664.664,0,0,0,.663.663.637.637,0,0,1,0,1.275,1.94,1.94,0,0,1-1.938-1.938V1.938A1.94,1.94,0,0,1,365.888,0h.293a1.94,1.94,0,0,1,1.938,1.938V3.55Z" transform="translate(-363.95 0)"/></g></g><g transform="translate(33.2 16.48)"><g transform="translate(0)"><path class="d" d="M78.018,198.188H74.983a.607.607,0,0,1-.607-.607v-3.035a.607.607,0,0,1,.607-.607h3.035a.607.607,0,0,1,.607.607v3.035A.607.607,0,0,1,78.018,198.188Z" transform="translate(-74.376 -193.939)"/><path class="d" d="M179.934,198.188H176.9a.607.607,0,0,1-.607-.607v-3.035a.607.607,0,0,1,.607-.607h3.035a.607.607,0,0,1,.607.607v3.035A.607.607,0,0,1,179.934,198.188Z" transform="translate(-167.632 -193.939)"/><path class="d" d="M281.85,198.188h-3.035a.607.607,0,0,1-.607-.607v-3.035a.607.607,0,0,1,.607-.607h3.035a.607.607,0,0,1,.607.607v3.035A.607.607,0,0,1,281.85,198.188Z" transform="translate(-260.887 -193.939)"/><path class="d" d="M383.766,198.188h-3.035a.607.607,0,0,1-.607-.607v-3.035a.607.607,0,0,1,.607-.607h3.035a.607.607,0,0,1,.607.607v3.035A.607.607,0,0,1,383.766,198.188Z" transform="translate(-354.143 -193.939)"/></g><g transform="translate(0 7.883)"><path class="d" d="M78.018,290.961H74.983a.607.607,0,0,1-.607-.607v-3.035a.607.607,0,0,1,.607-.607h3.035a.607.607,0,0,1,.607.607v3.035A.607.607,0,0,1,78.018,290.961Z" transform="translate(-74.376 -286.712)"/><path class="f" d="M179.934,290.961H176.9a.607.607,0,0,1-.607-.607v-3.035a.607.607,0,0,1,.607-.607h3.035a.607.607,0,0,1,.607.607v3.035A.607.607,0,0,1,179.934,290.961Z" transform="translate(-167.632 -286.712)"/><path class="d" d="M281.85,290.961h-3.035a.607.607,0,0,1-.607-.607v-3.035a.607.607,0,0,1,.607-.607h3.035a.607.607,0,0,1,.607.607v3.035A.607.607,0,0,1,281.85,290.961Z" transform="translate(-260.887 -286.712)"/></g><path class="d" d="M383.766,293.188h-3.035a.607.607,0,0,1-.607-.607v-3.035a.607.607,0,0,1,.607-.607h3.035a.607.607,0,0,1,.607.607v3.035A.607.607,0,0,1,383.766,293.188Z" transform="translate(-354.143 -280.866)"/><g transform="translate(0 15.767)"><path class="d" d="M78.018,383.734H74.983a.607.607,0,0,1-.607-.607v-3.035a.607.607,0,0,1,.607-.607h3.035a.607.607,0,0,1,.607.607v3.035A.607.607,0,0,1,78.018,383.734Z" transform="translate(-74.376 -379.485)"/><path class="d" d="M179.934,383.734H176.9a.607.607,0,0,1-.607-.607v-3.035a.607.607,0,0,1,.607-.607h3.035a.607.607,0,0,1,.607.607v3.035A.607.607,0,0,1,179.934,383.734Z" transform="translate(-167.632 -379.485)"/><path class="d" d="M281.85,383.734h-3.035a.607.607,0,0,1-.607-.607v-3.035a.607.607,0,0,1,.607-.607h3.035a.607.607,0,0,1,.607.607v3.035A.607.607,0,0,1,281.85,383.734Z" transform="translate(-260.887 -379.485)"/></g></g></g></svg>