<svg xmlns="http://www.w3.org/2000/svg" width="49.363" height="49.363" viewBox="0 0 49.363 49.363"><defs><style>.a{fill:#fff;}</style></defs><path class="a" d="M10.194,25.854H25.72a1.194,1.194,0,1,0,0-2.389H10.194a1.194,1.194,0,0,0,0,2.389Z" transform="translate(-4.344 -4.877)"/><path class="a" d="M37.184,29.465H10.044a1.205,1.205,0,0,0,0,2.389h27.14a1.205,1.205,0,0,0,0-2.389Z" transform="translate(-4.344 -5.566)"/><path class="a" d="M37.184,35.465H10.044a1.205,1.205,0,0,0,0,2.389h27.14a1.205,1.205,0,0,0,0-2.389Z" transform="translate(-4.344 -6.256)"/><path class="a" d="M44.486,2.528,16.4,2.465A5.117,5.117,0,0,0,11.518,7.78v4.593l-6.639.015A5.117,5.117,0,0,0,0,17.7v18.95a5.116,5.116,0,0,0,4.879,5.315H9.873v8.964a.9.9,0,0,0,.527.836.765.765,0,0,0,.3.06.8.8,0,0,0,.609-.293l7.984-9.569,13.679-.061a5.117,5.117,0,0,0,4.879-5.315v-.1l4.328,5.186a.8.8,0,0,0,.609.293.765.765,0,0,0,.3-.06.9.9,0,0,0,.527-.836V32.109h.88a5.116,5.116,0,0,0,4.879-5.315V7.843A5.117,5.117,0,0,0,44.486,2.528ZM36.2,36.59a3.391,3.391,0,0,1-3.237,3.522l-14.044.063a.8.8,0,0,0-.606.293l-6.8,8.145V41.071a.862.862,0,0,0-.823-.9H4.879a3.391,3.391,0,0,1-3.233-3.522V17.7A3.391,3.391,0,0,1,4.88,14.18l7.46-.017h0l20.624-.047A3.391,3.391,0,0,1,36.2,17.639V36.59Zm11.518-9.8a3.39,3.39,0,0,1-3.233,3.522h-1.7a.862.862,0,0,0-.823.9v7.542l-4.114-4.93V17.64a5.117,5.117,0,0,0-4.88-5.315l-19.8.044V7.78A3.391,3.391,0,0,1,16.4,4.257l28.089.063h0a3.391,3.391,0,0,1,3.233,3.523V26.793Z" transform="translate(0 -2.465)"/></svg>