<svg xmlns="http://www.w3.org/2000/svg" width="57.805" height="77.372" viewBox="0 0 57.805 77.372">
  <g id="Group_12158" data-name="Group 12158" transform="translate(0)">
    <path id="Path_21730" data-name="Path 21730" d="M141.191,415.124c-.317-.287-.209-.674-.244-1.021a7.73,7.73,0,0,0-.489-2.28c-.554-1.283-.321-2.752-1.078-3.991a10.4,10.4,0,0,0-3.625-3.846c-1.463-.837-1.71-1.881-.783-3.287.752-1.14,1.474-2.346,3.133-2.282.39.015.639.084.718.5.359,1.881,1.7,2.961,3.238,3.821a15.786,15.786,0,0,0,6.054,1.75,18.992,18.992,0,0,0,8.628-1.01,9.289,9.289,0,0,0,3.711-2.349,4.194,4.194,0,0,0,1.1-2.127c.068-.356.2-.575.652-.589a4.231,4.231,0,0,1,4.126,3.9c.015.483-.318.508-.624.631a4.068,4.068,0,0,0-2.693,3.535,3.956,3.956,0,0,0,1.737,3.765,4.158,4.158,0,1,0,4.306-7.085,1.6,1.6,0,0,1-1.015-1.275,12.783,12.783,0,0,0-.434-1.35c-.052-.173-.221-.382-.038-.538s.37,0,.542.083a17.745,17.745,0,0,1,4.526,2.974,18.766,18.766,0,0,1,6.432,13.162c.166,2.7-.066,5.29-1.657,7.592a8.392,8.392,0,0,1-4.628,3.123,23.281,23.281,0,0,1-5.841.923c-.673.034-.937-.136-.913-.866.054-1.643.019-3.289.017-4.934a4,4,0,0,0-4.308-4.262c-.558,0-1.116-.016-1.673,0-.5.014-.714-.219-.706-.7a8.26,8.26,0,0,0-.019-.836,2.723,2.723,0,0,0-5.435.1,4.293,4.293,0,0,0-.007.585c.058.652-.228.88-.879.869-1.9-.031-3.792-.027-5.687,0-.618.009-.878-.221-.835-.831a4.657,4.657,0,0,0-.014-.752,2.5,2.5,0,0,0-1.764-2.318,2.7,2.7,0,0,0-2.931.666C141.6,414.753,141.5,415.05,141.191,415.124Z" transform="translate(-121.306 -363.497)" fill="#c9cacc"/>
    <path id="Path_21731" data-name="Path 21731" d="M170.386,206.6a26.563,26.563,0,0,1-3.951,13.161,14.776,14.776,0,0,1-5.371,5.282A10.618,10.618,0,0,1,148.3,223.49a21.392,21.392,0,0,1-6.434-11.939,24.689,24.689,0,0,1-.521-8.959A15.106,15.106,0,0,1,154.3,189.9a14.635,14.635,0,0,1,14.126,7.537A16.938,16.938,0,0,1,170.386,206.6Zm-3.732-1.732-.049,0c0-.223.015-.447,0-.669a10.062,10.062,0,0,0-.722-3.583c-.488-1.038-.937-1.219-1.963-.837-.835.311-1.667.646-2.525.876a18.51,18.51,0,0,1-7.417.794,27.238,27.238,0,0,1-6.595-1.773.975.975,0,0,0-1.3.333,5.547,5.547,0,0,0-.959,2.635,20.219,20.219,0,0,0-.014,4.833c.033.465.413,1.068.075,1.358-.429.367-.855-.276-1.308-.412-.433-.13-.547-.072-.49.4a20.4,20.4,0,0,0,5.058,11.781,9.813,9.813,0,0,0,7.183,3.457,9.961,9.961,0,0,0,7.737-3.714,20.472,20.472,0,0,0,4.736-10.79c.06-.368.3-.906.03-1.107-.337-.252-.751.175-1.125.331-.2.082-.393.309-.6.135-.191-.158-.075-.414-.054-.633C166.448,207.145,166.549,206.009,166.653,204.873Z" transform="translate(-126.89 -189.82)" fill="#c9cacc"/>
    <path id="Path_21732" data-name="Path 21732" d="M68.108,405.892a7.741,7.741,0,0,1-3.014,4.729,8.28,8.28,0,0,0-3.543,4.64c-.791,2.9-1.689,5.84-1.164,8.938a2.773,2.773,0,0,0,1.875,2.423,6.4,6.4,0,0,0,2.85.453c.66-.066,1.206-.3,1.225-1.1.017-.7-.417-1.094-1.269-1.115a10.289,10.289,0,0,0-1.751.068.884.884,0,0,1-1.153-.778,10.038,10.038,0,0,1,.813-6.684,17.153,17.153,0,0,1,2.724-4.053c1.643-1.617,3.16-1.65,4.779-.005a7.762,7.762,0,0,1,.584.709,12.472,12.472,0,0,1,3.023,8.678c-.076,1.1-.1,1.153-1.188,1.219a3.964,3.964,0,0,0-3.8,4.007c-.019,1.728-.026,3.458.007,5.186.012.62-.109.919-.821.87a23.033,23.033,0,0,1-6.711-1.213,8.027,8.027,0,0,1-5.447-7.349c-.62-7.605,2.343-13.559,8.564-17.913A12.4,12.4,0,0,1,68.108,405.892Z" transform="translate(-56.048 -369.725)" fill="#c9cacc"/>
    <path id="Path_21733" data-name="Path 21733" d="M163,550.093q-5.644,0-11.288,0c-1.5,0-1.938-.575-1.9-2.069.063-2.3.023-4.613.023-6.919,0-1.778-.007-3.555-.007-5.333,0-1.39.049-2.781,0-4.168s.415-1.952,1.818-1.978c.362-.006.726.007,1.087-.019a1.624,1.624,0,0,1,1.659.8,2.628,2.628,0,0,0,4.48-.1,1.3,1.3,0,0,1,1.278-.691c1.895.026,3.79.022,5.685,0a1.344,1.344,0,0,1,1.3.682,2.673,2.673,0,0,0,4.637-.073,1.1,1.1,0,0,1,1.074-.61c.5.019,1,0,1.5.009,1.379.023,1.871.49,1.881,1.868.017,2.508,0,5.016,0,7.524,0,2.954-.015,5.908,0,8.862.007,1.77-.383,2.21-2.112,2.214Q168.564,550.1,163,550.093Zm.051-16.593c-3.011,0-6.021-.007-9.032,0-1.2,0-1.659.467-1.662,1.686q-.013,4.934,0,9.869c0,1.49.463,1.933,1.958,1.933q8.657,0,17.314,0c1.612,0,2.034-.409,2.038-2.021q.012-4.81,0-9.619c0-1.428-.422-1.852-1.835-1.853Q167.445,533.5,163.055,533.5Z" transform="translate(-134.121 -472.723)" fill="#c9cacc"/>
    <path id="Path_21734" data-name="Path 21734" d="M181.268,500.143c0-.528-.014-1.056,0-1.583A1.521,1.521,0,0,1,182.688,497a1.468,1.468,0,0,1,1.572,1.21,11.08,11.08,0,0,1-.062,3.97,1.437,1.437,0,0,1-1.614,1.022,1.456,1.456,0,0,1-1.313-1.388c-.032-.554-.006-1.111-.006-1.666Z" transform="translate(-160.297 -445.575)" fill="#c9cacc"/>
    <path id="Path_21735" data-name="Path 21735" d="M260.394,500.124c0,.527.02,1.056,0,1.582a1.468,1.468,0,0,1-1.318,1.47,1.449,1.449,0,0,1-1.656-1.183,12.235,12.235,0,0,1-.041-3.727,1.519,1.519,0,0,1,1.594-1.3,1.554,1.554,0,0,1,1.418,1.656c.013.5,0,1,0,1.5Z" transform="translate(-223.574 -445.554)" fill="#c9cacc"/>
    <path id="Path_21736" data-name="Path 21736" d="M318.74,439.985a2.233,2.233,0,1,1,2.283-2.2A2.294,2.294,0,0,1,318.74,439.985Z" transform="translate(-272.897 -394.394)" fill="#c9cacc"/>
    <path id="Path_21737" data-name="Path 21737" d="M176.927,563.079c-.5,0-1-.008-1.5,0-.718.014-1.1-.317-1.1-1.046,0-1.03,0-2.059-.009-3.089a.965.965,0,0,1,1.014-1.081c1.027-.041,2.057-.039,3.085-.015.821.02,1.186.51,1.184,1.305,0,.918.011,1.837-.013,2.754-.024.9-.326,1.17-1.239,1.177-.473,0-.946,0-1.419,0Z" transform="translate(-154.52 -496.234)" fill="#c9cacc"/>
    <path id="Path_21738" data-name="Path 21738" d="M254.1,563.089c-.5,0-1-.011-1.5,0a.969.969,0,0,1-1.131-1.037c-.028-1-.013-2,0-3a1.091,1.091,0,0,1,1.192-1.2c1-.021,2-.028,3,.008a1,1,0,0,1,1.078,1.114c-.006,1.029-.006,2.058-.012,3.086a.914.914,0,0,1-1.038,1.02H254.1Z" transform="translate(-218.748 -496.233)" fill="#c9cacc"/>
    <path id="Path_21739" data-name="Path 21739" d="M176.964,601.834c-.53,0-1.06.018-1.589,0a.98.98,0,0,1-1.056-1.049c-.017-1.059-.018-2.119.007-3.178a.98.98,0,0,1,1.07-1.036c.975-.02,1.953-.031,2.928,0,.9.029,1.23.391,1.254,1.318.023.892.02,1.785,0,2.677-.016.911-.361,1.244-1.279,1.27C177.857,601.844,177.41,601.833,176.964,601.834Z" transform="translate(-154.512 -528.468)" fill="#c9cacc"/>
    <path id="Path_21740" data-name="Path 21740" d="M256.731,599.218c0,.474.012.948,0,1.422-.026.831-.356,1.188-1.163,1.2-.976.021-1.952,0-2.928,0a1.039,1.039,0,0,1-1.174-1.117c-.018-.976-.029-1.953,0-2.928.028-.851.389-1.192,1.263-1.219.891-.028,1.785-.017,2.677-.005.985.013,1.295.328,1.314,1.308.009.446,0,.893,0,1.339Z" transform="translate(-218.739 -528.478)" fill="#c9cacc"/>
    <path id="Path_21741" data-name="Path 21741" d="M215.381,601.812c-.5,0-1,.013-1.506,0a.951.951,0,0,1-1.042-1.04c-.021-.919-.076-1.837-.089-2.756-.016-1.086.347-1.46,1.438-1.485.836-.019,1.673-.022,2.509,0,1.023.025,1.453.445,1.371,1.457-.072.893-.052,1.782-.08,2.673-.026.853-.319,1.136-1.179,1.153C216.33,601.819,215.855,601.812,215.381,601.812Z" transform="translate(-186.516 -528.439)" fill="#c9cacc"/>
    <path id="Path_21742" data-name="Path 21742" d="M215.445,562.917c-.195,0-.39,0-.585,0-1.974-.024-2.009-.038-2.067-1.988-.023-.777.051-1.557.092-2.335a.9.9,0,0,1,.935-.887,18.049,18.049,0,0,1,3.254,0,.932.932,0,0,1,.942,1.056c-.044,1.028.128,2.05.025,3.085-.078.78-.427,1.094-1.175,1.068-.473-.016-.947,0-1.421,0Z" transform="translate(-186.553 -496.067)" fill="#c9cacc"/>
  </g>
</svg>
