<svg xmlns="http://www.w3.org/2000/svg" width="42.13" height="32.062" viewBox="0 0 42.13 32.062"><defs><style>.a{fill:#83af40;}</style></defs><path class="a" d="M36.987,57.75H5.152A5.156,5.156,0,0,0,0,62.9V84.66a5.156,5.156,0,0,0,5.152,5.152H36.978A5.156,5.156,0,0,0,42.13,84.66V62.911A5.151,5.151,0,0,0,36.987,57.75Zm2.8,26.91a2.8,2.8,0,0,1-2.8,2.8H5.152a2.8,2.8,0,0,1-2.8-2.8V62.911a2.8,2.8,0,0,1,2.8-2.8H36.978a2.8,2.8,0,0,1,2.8,2.8V84.66Z" transform="translate(0 -57.75)"/><path class="a" d="M77.462,120.2l10.3-9.24a1.179,1.179,0,1,0-1.578-1.752L71.979,121.965l-2.772-2.476c-.009-.009-.017-.018-.017-.026A1.745,1.745,0,0,0,69,119.3L57.718,109.2a1.179,1.179,0,1,0-1.569,1.761l10.426,9.319L56.192,130a1.182,1.182,0,0,0-.052,1.665,1.2,1.2,0,0,0,.863.375,1.179,1.179,0,0,0,.8-.314l10.539-9.859,2.859,2.554a1.174,1.174,0,0,0,1.569-.009l2.938-2.633,10.478,9.955a1.18,1.18,0,0,0,1.665-.044,1.182,1.182,0,0,0-.044-1.665Z" transform="translate(-50.892 -104.443)"/></svg>