<svg xmlns="http://www.w3.org/2000/svg" width="32.683" height="33.502" viewBox="0 0 32.683 33.502"><defs><style>.a{fill:#c9cacc;}</style></defs><path class="a" d="M31.274,0H1.407A1.4,1.4,0,0,0,.156.762,1.423,1.423,0,0,0,.267,2.242L11.209,17.657l.011.016a3.125,3.125,0,0,1,.614,1.855V32.1a1.4,1.4,0,0,0,1.4,1.406,1.44,1.44,0,0,0,.551-.111l6.149-2.344a1.332,1.332,0,0,0,.916-1.314v-10.2a3.127,3.127,0,0,1,.613-1.855l.011-.016L32.414,2.242a1.421,1.421,0,0,0,.111-1.48A1.4,1.4,0,0,0,31.274,0Zm0,0" transform="translate(0.001 0)"/></svg>