<svg xmlns="http://www.w3.org/2000/svg" width="70.777" height="103.547" viewBox="0 0 70.777 103.547"><defs><style>.a{fill:#83af40;}</style></defs><g transform="translate(0)"><path class="a" d="M137.8,35.917,151.321,17.79a2.388,2.388,0,0,0-1.914-3.815h-58.2V10.931a5.727,5.727,0,1,0-4.775,0V98.772H83.4a2.387,2.387,0,1,0,0,4.775H94.232a2.387,2.387,0,1,0,0-4.775H91.205v-41H149.32a2.388,2.388,0,0,0,1.915-3.813ZM88.818,7.157a1.43,1.43,0,1,1,1.43-1.43A1.431,1.431,0,0,1,88.818,7.157Zm2.387,45.837h0v-7.93h7.609a2.387,2.387,0,1,0,0-4.775H91.206V31.456h11.906a2.387,2.387,0,1,0,0-4.775H91.206V18.75h53.442L132.911,34.489a2.388,2.388,0,0,0,0,2.853l11.655,15.652H91.206Z" transform="translate(-81.017)"/></g></svg>