<svg xmlns="http://www.w3.org/2000/svg" width="25.869" height="33.261" viewBox="0 0 25.869 33.261"><defs><style>.a{fill:#af414b;}</style></defs><path class="a" d="M78.733,0C71.6,0,65.8,5.543,65.8,12.356c0,4.42,3.848,10.928,5.028,12.818a40.17,40.17,0,0,0,4.067,5.519c2.089,2.3,3.192,2.568,3.84,2.568s1.75-.266,3.84-2.568a40.169,40.169,0,0,0,4.067-5.519c1.179-1.889,5.028-8.4,5.028-12.818C91.668,5.543,85.865,0,78.733,0Zm0,21.095a8.961,8.961,0,0,1-9.148-8.739,9.158,9.158,0,0,1,18.3,0A8.961,8.961,0,0,1,78.733,21.095Z" transform="translate(-65.799 0)"/><path class="a" d="M158.584,85.677a6.8,6.8,0,1,0,7.108,6.79A6.962,6.962,0,0,0,158.584,85.677Z" transform="translate(-145.65 -80.111)"/></svg>