<svg xmlns="http://www.w3.org/2000/svg" width="34.032" height="34.032" viewBox="0 0 34.032 34.032"><defs><style>.a{fill:#b4b4b4;stroke:#b4b4b4;stroke-width:0.5px;}</style></defs><g transform="translate(0.25 0.25)"><path class="a" d="M29.411,0H4.121A4.125,4.125,0,0,0,0,4.121V29.411a4.125,4.125,0,0,0,4.121,4.121.682.682,0,0,0,0-1.365,2.759,2.759,0,0,1-2.756-2.756V4.121A2.759,2.759,0,0,1,4.121,1.365H29.411a2.759,2.759,0,0,1,2.756,2.756V29.411a2.759,2.759,0,0,1-2.756,2.756H11.421a.682.682,0,1,0,0,1.365h17.99a4.125,4.125,0,0,0,4.121-4.121V4.121A4.125,4.125,0,0,0,29.411,0Z"/><path class="a" d="M142.1,51.992a.682.682,0,0,0-.682.682V62.845a.683.683,0,0,0,.2.483L152.995,74.7a.682.682,0,1,0,.965-.965L142.787,62.562V52.674A.682.682,0,0,0,142.1,51.992Z" transform="translate(-125.338 -46.079)"/></g></svg>