<svg xmlns="http://www.w3.org/2000/svg" width="42.696" height="42.703" viewBox="0 0 42.696 42.703"><defs><style>.a{fill:#83af40;}</style></defs><path class="a" d="M23.135,5A2.135,2.135,0,1,0,25.27,7.135,2.135,2.135,0,0,0,23.135,5Zm0,2.846a.712.712,0,1,1,.712-.712A.712.712,0,0,1,23.135,7.846Z" transform="translate(-7.48 -2.859)"/><path class="a" d="M11,33h2.846v1.423H11Z" transform="translate(-4.596 -10.934)"/><path class="a" d="M17,33H27.674v1.423H17Z" transform="translate(-6.326 -10.934)"/><path class="a" d="M11,39h2.846v1.423H11Z" transform="translate(-4.596 -12.664)"/><path class="a" d="M11,45h2.846v1.423H11Z" transform="translate(-4.596 -14.395)"/><path class="a" d="M11,51h2.846v1.423H11Z" transform="translate(-4.596 -16.125)"/><path class="a" d="M43.984,25.48h-.712a10.754,10.754,0,0,1-6.4-2.135l-1.708-1.281a.7.7,0,0,0-.854,0l-1,.747V8.4a2.141,2.141,0,0,0-2.135-2.135H25.355a2.142,2.142,0,0,0-2.007-1.423H21.683a4.27,4.27,0,0,0-8.055,0H11.962A2.142,2.142,0,0,0,9.956,6.267H4.135A2.141,2.141,0,0,0,2,8.4V42.559a2.141,2.141,0,0,0,2.135,2.135H31.176a2.146,2.146,0,0,0,1.672-.818l1.58.747a.694.694,0,0,0,.612,0l6.248-2.967A6.377,6.377,0,0,0,44.7,36V26.192a.712.712,0,0,0-.712-.712ZM25.483,7.69h5.693a.712.712,0,0,1,.712.712V23.837a10.843,10.843,0,0,1-1.423.747V9.825a.712.712,0,0,0-.712-.712h-4.27ZM11.251,6.979a.712.712,0,0,1,.712-.712h2.206a.7.7,0,0,0,.7-.569,2.846,2.846,0,0,1,5.579,0,.7.7,0,0,0,.7.569h2.206a.712.712,0,0,1,.712.712V9.825H11.251Zm-.712,4.27H24.771a.712.712,0,0,0,.712-.712h3.558V25.082a10.7,10.7,0,0,1-2.846.4h-.712a.712.712,0,0,0-.712.712v2.135h-12.1V29.75h12.1V32.6h-12.1V34.02h12.1V36a7.022,7.022,0,0,0,.057.868H12.674v1.423H25.205a6.424,6.424,0,0,0,1.359,2.135H6.27V10.537H9.828a.712.712,0,0,0,.712.712ZM31.176,43.271H4.135a.712.712,0,0,1-.712-.712V8.4a.712.712,0,0,1,.712-.712H9.828V9.113H5.558a.712.712,0,0,0-.712.712V41.136a.712.712,0,0,0,.712.712H28.585l2.861,1.359a.717.717,0,0,1-.27.064ZM43.273,36a4.948,4.948,0,0,1-2.626,4.383l-5.913,2.811-5.9-2.8A4.963,4.963,0,0,1,26.194,36V26.9a12.168,12.168,0,0,0,7.258-2.419l1.281-.961,1.281.961A12.168,12.168,0,0,0,43.273,26.9Z" transform="translate(-2 -1.991)"/><path class="a" d="M26.251,19.846H24.116V17.712A.712.712,0,0,0,23.4,17H20.558a.712.712,0,0,0-.712.712v2.135H17.712a.712.712,0,0,0-.712.712V23.4a.712.712,0,0,0,.712.712h2.135v2.135a.712.712,0,0,0,.712.712H23.4a.712.712,0,0,0,.712-.712V24.116h2.135a.712.712,0,0,0,.712-.712V20.558A.712.712,0,0,0,26.251,19.846Zm-.712,2.846H23.4a.712.712,0,0,0-.712.712v2.135H21.27V23.4a.712.712,0,0,0-.712-.712H18.423V21.27h2.135a.712.712,0,0,0,.712-.712V18.423h1.423v2.135a.712.712,0,0,0,.712.712h2.135Z" transform="translate(-6.326 -6.32)"/><path class="a" d="M51.627,37.689a13.55,13.55,0,0,1-6.084-2.548.7.7,0,0,0-.854,0A13.55,13.55,0,0,1,38.6,37.689a.717.717,0,0,0-.6.7v7.123a3.554,3.554,0,0,0,1.836,3.11l.043.021,4.931,2.341a.694.694,0,0,0,.612,0L50.4,48.626a3.562,3.562,0,0,0,1.836-3.11V38.394a.717.717,0,0,0-.6-.7Zm-.818,7.828a2.106,2.106,0,0,1-1.067,1.843l-4.625,2.2L40.5,47.374a2.135,2.135,0,0,1-1.082-1.857V38.991a15.02,15.02,0,0,0,5.693-2.405,15.02,15.02,0,0,0,5.693,2.405Z" transform="translate(-12.382 -11.51)"/><path class="a" d="M43.3,45.851l-1.006,1.006,2.135,2.135a.712.712,0,0,0,1.006,0L51.127,43.3l-1.006-1.006-5.19,5.19Z" transform="translate(-13.62 -13.614)"/></svg>