<svg id="Group_11710" data-name="Group 11710" xmlns="http://www.w3.org/2000/svg" width="74.465" height="74.465" viewBox="0 0 74.465 74.465">
  <g id="internet_3_" data-name="internet (3)">
    <path id="Path_21716" data-name="Path 21716" d="M286.751,189.4a8.726,8.726,0,0,1-7.679-6.491H271v21.261h14.949A60.349,60.349,0,0,0,286.751,189.4Z" transform="translate(-231.586 -156.305)" fill="#c9cacc"/>
    <path id="Path_21717" data-name="Path 21717" d="M358.944,138.037a4.344,4.344,0,1,0,4.345,4.344A4.349,4.349,0,0,0,358.944,138.037Z" transform="translate(-303.027 -117.961)" fill="#c9cacc"/>
    <ellipse id="Ellipse_785" data-name="Ellipse 785" cx="6.561" cy="6.561" rx="6.561" ry="6.561" transform="translate(11.778 43.627)" fill="#c9cacc"/>
    <path id="Path_21718" data-name="Path 21718" d="M158.89,0c-4.98,3.422-9.028,9.191-11.824,15.872a49.284,49.284,0,0,0-2.151,6.367H158.89Z" transform="translate(-123.84 0)" fill="#c9cacc"/>
    <path id="Path_21719" data-name="Path 21719" d="M131.777,195.605a10.945,10.945,0,0,1,9.817,8.563h6.04V182.907H132.688A60.313,60.313,0,0,0,131.777,195.605Z" transform="translate(-112.582 -156.305)" fill="#c9cacc"/>
    <path id="Path_21720" data-name="Path 21720" d="M174.247,381.332V359.093h-5.982a10.953,10.953,0,0,1-5.379,7.479C165.61,372.787,169.418,378.074,174.247,381.332Z" transform="translate(-139.196 -306.867)" fill="#c9cacc"/>
    <path id="Path_21721" data-name="Path 21721" d="M271,381.332c5.22-3.583,9.4-9.675,12.207-16.815a50.152,50.152,0,0,0,1.773-5.423H271Z" transform="translate(-231.586 -306.867)" fill="#c9cacc"/>
    <path id="Path_21722" data-name="Path 21722" d="M331.9,366.113a42.162,42.162,0,0,1-8.671,13.919,37.318,37.318,0,0,0,24.309-20.938H334.116A54.954,54.954,0,0,1,331.9,366.113Z" transform="translate(-276.223 -306.868)" fill="#c9cacc"/>
    <path id="Path_21723" data-name="Path 21723" d="M36.819,367.979a10.94,10.94,0,0,1-10.73-8.886H21.626A37.32,37.32,0,0,0,45.808,380,39.635,39.635,0,0,1,38,367.914,10.946,10.946,0,0,1,36.819,367.979Z" transform="translate(-18.481 -306.867)" fill="#c9cacc"/>
    <path id="Path_21724" data-name="Path 21724" d="M404.921,188.663a64.956,64.956,0,0,1-.7,15.5h14.132a37.395,37.395,0,0,0,0-21.261H409.78A8.743,8.743,0,0,1,404.921,188.663Z" transform="translate(-345.432 -156.305)" fill="#c9cacc"/>
    <path id="Path_21725" data-name="Path 21725" d="M14.847,196.144a64.886,64.886,0,0,1,.832-13.237H1.543a37.4,37.4,0,0,0,0,21.261H7.666A10.961,10.961,0,0,1,14.847,196.144Z" transform="translate(0 -156.305)" fill="#c9cacc"/>
    <path id="Path_21726" data-name="Path 21726" d="M332.075,23.349h.045a8.722,8.722,0,0,1,8.431,6.526h6.972A37.317,37.317,0,0,0,323.211,8.935a36.629,36.629,0,0,1,2.413,2.783A44.412,44.412,0,0,1,332.075,23.349Z" transform="translate(-276.204 -7.636)" fill="#c9cacc"/>
    <path id="Path_21727" data-name="Path 21727" d="M271,0V22.239h8.072a8.743,8.743,0,0,1,4.146-5.394C281.064,11.347,277.336,4.33,271,0Z" transform="translate(-231.586 0)" fill="#c9cacc"/>
    <path id="Path_21728" data-name="Path 21728" d="M37.682,21.821A41.7,41.7,0,0,1,45.938,8.932a37.319,37.319,0,0,0-24.313,20.94h13.43A54.213,54.213,0,0,1,37.682,21.821Z" transform="translate(-18.48 -7.633)" fill="#c9cacc"/>
  </g>
</svg>
