<svg xmlns="http://www.w3.org/2000/svg" width="14.291" height="19.022" viewBox="0 0 14.291 19.022"><defs><style>.a{fill:#fff;stroke:#fff;stroke-width:0.2px;}</style></defs><g transform="translate(0.1 0.1)"><path class="a" d="M75.179,15.3a.276.276,0,0,0-.276.276v1.292H67.383a.276.276,0,0,0,0,.551H74.9v.643a.208.208,0,0,1-.208.208H65.112a.208.208,0,0,1-.208-.208V17.42h1.171a.276.276,0,0,0,0-.551H64.9V.759a.208.208,0,0,1,.208-.208H67l.2.725A.837.837,0,0,0,68,1.891h3.8a.837.837,0,0,0,.805-.614l.2-.725H74.7A.208.208,0,0,1,74.9.759V3.223a.276.276,0,0,0,.551,0V.759A.76.76,0,0,0,74.7,0H65.112a.76.76,0,0,0-.759.759v17.3a.76.76,0,0,0,.759.759H74.7a.76.76,0,0,0,.759-.759V15.576A.276.276,0,0,0,75.179,15.3ZM72.236.551l-.159.579a.285.285,0,0,1-.274.209H68a.284.284,0,0,1-.274-.209L67.572.551Z" transform="translate(-64.353 0)"/><path class="a" d="M132.522,95.221a.276.276,0,0,0-.413.366,5.433,5.433,0,0,1,.433.558h-2.465a8.855,8.855,0,0,0-.312-1.088,4.5,4.5,0,0,0-.615-1.19,5.388,5.388,0,0,1,2.069.913.276.276,0,1,0,.323-.447,5.987,5.987,0,1,0,.98.887Zm-4.481,9.4c-.54,0-1.119-.9-1.469-2.382h2.939C129.16,103.719,128.581,104.621,128.041,104.621Zm-1.584-2.933a13.9,13.9,0,0,1-.209-2.224h3.587a13.9,13.9,0,0,1-.209,2.224Zm-3.842-2.224H125.7a14.614,14.614,0,0,0,.2,2.224h-2.68A5.4,5.4,0,0,1,122.614,99.464Zm3.082-.551h-3.082a5.4,5.4,0,0,1,.6-2.216H125.9A14.621,14.621,0,0,0,125.7,98.912Zm.759-2.216h3.171a13.9,13.9,0,0,1,.208,2.216h-3.587A13.9,13.9,0,0,1,126.455,96.7Zm3.93,2.768h3.082a5.394,5.394,0,0,1-.6,2.224h-2.68A14.617,14.617,0,0,0,130.386,99.464Zm2.484-2.768a5.427,5.427,0,0,1,.6,2.216h-3.082a14.614,14.614,0,0,0-.2-2.216Zm-3.357-.551h-2.943c.35-1.485.93-2.39,1.471-2.39S129.162,94.66,129.512,96.144Zm-2.582-2.276a4.5,4.5,0,0,0-.614,1.188A8.845,8.845,0,0,0,126,96.144h-2.463A5.447,5.447,0,0,1,126.93,93.868Zm-3.383,8.371h2.459a8.838,8.838,0,0,0,.31,1.079,4.5,4.5,0,0,0,.614,1.188A5.447,5.447,0,0,1,123.547,102.239Zm5.6,2.268a4.5,4.5,0,0,0,.614-1.188,8.835,8.835,0,0,0,.31-1.079h2.459A5.447,5.447,0,0,1,129.151,104.507Z" transform="translate(-119.935 -89.777)"/></g></svg>