<svg xmlns="http://www.w3.org/2000/svg" width="32.282" height="33.205" viewBox="0 0 32.282 33.205"><defs><style>.a{fill:#6e41af;}</style></defs><path class="a" d="M231.816,351.58c2.469-.361,4.633-3.017,5.994-6.939a28.487,28.487,0,0,0-5.994-.727Zm0,0" transform="translate(-215.099 -318.376)"/><path class="a" d="M280,363.637c.146-.044.291-.087.436-.135.121-.041.242-.084.362-.128q.213-.075.424-.157c.12-.047.239-.1.358-.147l.41-.178c.119-.054.236-.11.354-.167.133-.065.266-.131.4-.2.116-.061.231-.123.346-.186s.258-.144.385-.219.227-.135.339-.2l.373-.238c.111-.073.221-.146.33-.222s.242-.172.361-.26.214-.159.319-.238.234-.187.35-.282.205-.169.307-.255.226-.2.337-.3.2-.179.293-.271.217-.216.325-.325.187-.188.278-.285l.05-.056a19.036,19.036,0,0,0-3.953-1.568,14.83,14.83,0,0,1-3.687,6.171l.14-.035C279.76,363.713,279.881,363.674,280,363.637Zm0,0" transform="translate(-259.34 -331.056)"/><path class="a" d="M343.642,231.684h-6.918a31.721,31.721,0,0,1-1.165,8.227,19.72,19.72,0,0,1,4.379,1.8A16.912,16.912,0,0,0,343.642,231.684Zm0,0" transform="translate(-311.36 -214.487)"/><path class="a" d="M231.816,116.876h7.493a30.6,30.6,0,0,0-1.136-7.934,29.526,29.526,0,0,1-6.357.781Zm0,0" transform="translate(-215.099 -100.868)"/><path class="a" d="M231.816.316V7.982a28.49,28.49,0,0,0,5.994-.727c-1.362-3.922-3.526-6.577-5.994-6.939Zm0,0" transform="translate(-215.099 -0.316)"/><path class="a" d="M231.816,238.836a29.537,29.537,0,0,1,6.357.782,30.6,30.6,0,0,0,1.136-7.934h-7.493Zm0,0" transform="translate(-215.098 -214.487)"/><path class="a" d="M339.937,80.844a19.725,19.725,0,0,1-4.379,1.8,31.7,31.7,0,0,1,1.165,8.227h6.917a16.916,16.916,0,0,0-3.7-10.022Zm0,0" transform="translate(-311.359 -74.858)"/><path class="a" d="M287.1,11.4c-.017-.018-.033-.037-.049-.055-.092-.1-.186-.19-.279-.285s-.214-.219-.325-.325c-.1-.092-.194-.179-.292-.27s-.223-.205-.338-.3c-.1-.087-.2-.17-.3-.253s-.234-.192-.353-.284-.21-.159-.316-.238-.242-.179-.365-.264c-.108-.075-.218-.148-.327-.22-.125-.083-.249-.164-.376-.242-.111-.069-.224-.137-.336-.2-.129-.076-.258-.15-.389-.222-.115-.06-.231-.124-.346-.184-.133-.069-.267-.136-.4-.2q-.173-.085-.351-.165c-.137-.062-.275-.119-.412-.178-.119-.05-.237-.1-.357-.146-.14-.055-.282-.107-.424-.157-.12-.044-.24-.087-.362-.127-.144-.048-.288-.092-.436-.136-.12-.036-.241-.073-.362-.106-.046-.013-.094-.023-.14-.036a14.836,14.836,0,0,1,3.687,6.171A19.012,19.012,0,0,0,287.1,11.4Zm0,0" transform="translate(-259.304 -6.315)"/><path class="a" d="M0,90.866H6.918A31.728,31.728,0,0,1,8.082,82.64a19.7,19.7,0,0,1-4.378-1.8A16.912,16.912,0,0,0,0,90.866Zm0,0" transform="translate(0 -74.858)"/><path class="a" d="M138.689,351.58v-7.666a28.491,28.491,0,0,0-5.994.727C134.056,348.563,136.221,351.219,138.689,351.58Zm0,0" transform="translate(-123.126 -318.375)"/><path class="a" d="M119.414,231.684h-7.492a30.582,30.582,0,0,0,1.136,7.934,29.5,29.5,0,0,1,6.357-.782Zm0,0" transform="translate(-103.85 -214.487)"/><path class="a" d="M138.689.316c-2.469.361-4.633,3.017-5.994,6.939a28.452,28.452,0,0,0,5.994.727Zm0,0" transform="translate(-123.126 -0.316)"/><path class="a" d="M119.414,109.723a29.524,29.524,0,0,1-6.357-.781,30.585,30.585,0,0,0-1.136,7.934h7.493Zm0,0" transform="translate(-103.85 -100.868)"/><path class="a" d="M69.83,6.789l-.14.035c-.122.034-.243.071-.365.107-.145.044-.288.087-.434.135-.123.041-.243.084-.364.128-.141.051-.283.1-.422.157-.121.048-.24.1-.359.147l-.41.178c-.119.054-.236.11-.354.167-.133.065-.266.131-.4.2q-.173.091-.346.186-.194.107-.385.219-.173.1-.34.2c-.125.078-.249.158-.373.238s-.221.147-.33.223-.242.172-.361.26-.214.158-.319.238-.231.187-.35.282c-.1.084-.206.168-.306.256-.116.1-.225.2-.336.3s-.2.179-.294.272-.216.215-.323.323-.188.188-.279.285c-.017.018-.033.038-.05.056a19.02,19.02,0,0,0,3.953,1.568A14.831,14.831,0,0,1,69.83,6.789Zm0,0" transform="translate(-57.706 -6.308)"/><path class="a" d="M62.554,359.47c.107.109.214.219.324.325s.194.178.293.27.224.205.339.3c.1.086.2.17.3.253s.231.192.353.285c.1.081.21.158.315.238s.242.178.365.264c.108.075.217.148.327.22.125.082.249.163.376.242q.167.1.336.2.194.114.389.221c.115.06.231.124.346.184.133.069.266.135.4.2q.173.084.352.165c.137.063.274.119.412.178.119.05.237.1.357.147.14.055.282.107.424.157.12.043.24.087.362.127.144.048.288.092.437.136.12.036.241.073.362.107.047.013.094.023.141.036a14.838,14.838,0,0,1-3.687-6.171,19.036,19.036,0,0,0-3.953,1.569l.05.055C62.367,359.282,62.46,359.376,62.554,359.47Zm0,0" transform="translate(-57.743 -331.009)"/><path class="a" d="M3.7,241.705a19.73,19.73,0,0,1,4.378-1.8,31.727,31.727,0,0,1-1.165-8.227H0A16.915,16.915,0,0,0,3.7,241.705Zm0,0" transform="translate(0 -214.486)"/></svg>