<svg xmlns="http://www.w3.org/2000/svg" width="105.28" height="105.279" viewBox="0 0 105.28 105.279"><defs><style>.a{fill:#83af40;}</style></defs><g transform="translate(0 0)"><path class="a" d="M96.643,37.012H67.723c.092-1.014.141-2.042.141-3.08a33.941,33.941,0,0,0-50.887-29.4,2.056,2.056,0,1,0,2.058,3.561,29.822,29.822,0,1,1,14.9,55.658,29.486,29.486,0,0,1-18.7-6.594,2.058,2.058,0,0,0-1.895-.363L7.88,58.222l2.138-4.7a2.055,2.055,0,0,0-.209-2.062A29.836,29.836,0,0,1,8.115,19a2.056,2.056,0,0,0-3.558-2.063A33.955,33.955,0,0,0,5.789,52.89L2.346,60.454a2.056,2.056,0,0,0,2.391,2.841l8.745-2.286a33.924,33.924,0,0,0,25.175,6.525V85.539a8.646,8.646,0,0,0,8.635,8.636H76.375l13,10.639a2.056,2.056,0,0,0,3.358-1.592V94.175h3.907a8.646,8.646,0,0,0,8.636-8.636V45.648a8.646,8.646,0,0,0-8.636-8.636Zm4.524,48.527a4.529,4.529,0,0,1-4.524,4.524H90.68a2.056,2.056,0,0,0-2.056,2.056v6.764L78.468,90.574c-.56-.511-1.05-.511-2.151-.511H47.293a4.529,4.529,0,0,1-4.523-4.524V66.694a34.046,34.046,0,0,0,24.325-25.57H96.643a4.528,4.528,0,0,1,4.524,4.524Zm0,0" transform="translate(0 0.001)"/><path class="a" d="M310.493,270.34a2.055,2.055,0,0,0-.876-3.915h-.842l-6.631-15.113a2.056,2.056,0,0,0-3.766,0l-6.631,15.113H290.9a2.055,2.055,0,0,0-.876,3.915l-2.47,5.629a2.056,2.056,0,1,0,3.766,1.652l3.108-7.083h11.656l3.108,7.083a2.056,2.056,0,1,0,3.766-1.652Zm-14.255-3.915,4.023-9.17,4.023,9.17Zm0,0" transform="translate(-228.292 -198.659)"/><path class="a" d="M47.459,49.511a2.057,2.057,0,1,0-1.454-.6A2.074,2.074,0,0,0,47.459,49.511Zm0,0" transform="translate(-36.066 -36.063)"/><path class="a" d="M101.2,114.282a2.057,2.057,0,1,0,1.978,3.606,23.548,23.548,0,0,0,10.177-11.039,23.552,23.552,0,0,0,10.177,11.039,2.057,2.057,0,0,0,1.978-3.606,19.447,19.447,0,0,1-9.878-14.15h9.129a2.056,2.056,0,0,0,0-4.112h-9.349V87.451a2.056,2.056,0,0,0-4.113,0V96.02h-7.428a2.056,2.056,0,0,0,0,4.112h7.208A19.446,19.446,0,0,1,101.2,114.282Zm0,0" transform="translate(-79.543 -67.835)"/></g></svg>