<svg xmlns="http://www.w3.org/2000/svg" width="23.032" height="21.995" viewBox="0 0 23.032 21.995"><defs><style>.a{fill:#7a7a7a;}</style></defs><path class="a" d="M39.494,15.915a.894.894,0,0,0-.919-.227,9.719,9.719,0,0,1-2.955.441c-5,0-9.074-3.619-9.074-8.065A7.835,7.835,0,0,1,30.522,1.4a.7.7,0,0,0,.342-.771.8.8,0,0,0-.686-.562A9,9,0,0,0,29.02,0C22.2,0,16.646,4.933,16.646,11s5.55,11,12.374,11a12.689,12.689,0,0,0,10.536-5.232A.673.673,0,0,0,39.494,15.915Z" transform="translate(-16.646 0)"/></svg>