<svg xmlns="http://www.w3.org/2000/svg" width="74.439" height="72.196" viewBox="0 0 74.439 72.196">
  <path id="Path_22201" data-name="Path 22201" d="M71.029,36.1,74.3,27.839a2.216,2.216,0,0,0-.707-2.563l-7.081-5.568-1.433-8.74A2.292,2.292,0,0,0,63.139,9.1l-9.011-1.39L48.391.835A2.376,2.376,0,0,0,45.753.149L37.23,3.321,28.712.153a2.366,2.366,0,0,0-2.638.686L20.333,7.711,11.322,9.1a2.3,2.3,0,0,0-1.931,1.872l-1.433,8.74L.873,25.281a2.214,2.214,0,0,0-.707,2.558L3.431,36.1.165,44.362A2.208,2.208,0,0,0,.873,46.92l7.085,5.563,1.433,8.74A2.291,2.291,0,0,0,11.322,63.1l9.011,1.39,5.741,6.867a2.361,2.361,0,0,0,2.643.686L37.23,68.88l8.518,3.167a2.4,2.4,0,0,0,.833.149,2.347,2.347,0,0,0,1.81-.839l5.736-6.867,9.011-1.39a2.3,2.3,0,0,0,1.935-1.877l1.433-8.74,7.081-5.563a2.209,2.209,0,0,0,.707-2.558Z" transform="translate(-0.01)" fill="#fd5353"/>
</svg>
