<svg xmlns="http://www.w3.org/2000/svg" width="85.751" height="104.534" viewBox="0 0 85.751 104.534"><defs><style>.a{fill:#83af40;}</style></defs><path class="a" d="M122.042,130.083A2.042,2.042,0,1,0,120,128.042,2.043,2.043,0,0,0,122.042,130.083Zm0,0" transform="translate(-95.5 -100.275)"/><path class="a" d="M122.042,190.083A2.042,2.042,0,1,0,120,188.042,2.043,2.043,0,0,0,122.042,190.083Zm0,0" transform="translate(-95.5 -148.025)"/><path class="a" d="M22.459,104.534h49A14.308,14.308,0,0,0,85.751,90.243,2.042,2.042,0,0,0,83.709,88.2H77.584V10.208A10.22,10.22,0,0,0,67.376,0H8.167A8.176,8.176,0,0,0,0,8.167V18.375a2.042,2.042,0,0,0,2.042,2.042H12.25V93.889a10.416,10.416,0,0,0,10.208,10.645Zm49-4.083H30.621a10.221,10.221,0,0,0,2.046-6.146V92.264h48.8a10.244,10.244,0,0,1-10,8.187ZM73.5,10.208V88.2H30.625a2.042,2.042,0,0,0-2.042,2.042v4.083a6.132,6.132,0,0,1-6.125,6.125,6.316,6.316,0,0,1-6.125-6.562V8.167a8.155,8.155,0,0,0-1.092-4.083H67.376A6.132,6.132,0,0,1,73.5,10.209ZM4.083,16.334V8.167a4.083,4.083,0,0,1,8.167,0v8.167Zm0,0"/><path class="a" d="M220,238.25a12.13,12.13,0,0,0,4.083,9.124v13.335a2.042,2.042,0,0,0,3.174,1.7l4.992-3.328,4.993,3.328a2.042,2.042,0,0,0,3.174-1.7V247.374a12.13,12.13,0,0,0,4.083-9.124,12.25,12.25,0,0,0-24.5,0Zm13.383,16.676a2.043,2.043,0,0,0-2.265,0l-2.951,1.968V249.8a12.309,12.309,0,0,0,8.167,0v7.091Zm7.034-16.676a8.167,8.167,0,1,1-8.167-8.167A8.165,8.165,0,0,1,240.417,238.25Zm0,0" transform="translate(-175.083 -179.858)"/><path class="a" d="M122.042,70.083h36.75a2.042,2.042,0,1,0,0-4.083h-36.75a2.042,2.042,0,1,0,0,4.083Zm0,0" transform="translate(-95.5 -52.525)"/><path class="a" d="M162.042,130.083h28.584a2.042,2.042,0,1,0,0-4.083H162.042a2.042,2.042,0,1,0,0,4.083Zm0,0" transform="translate(-127.333 -100.275)"/><path class="a" d="M162.042,190.083h28.584a2.042,2.042,0,1,0,0-4.083H162.042a2.042,2.042,0,1,0,0,4.083Zm0,0" transform="translate(-127.333 -148.025)"/><path class="a" d="M122.042,310.083h12.25a2.042,2.042,0,1,0,0-4.083h-12.25a2.042,2.042,0,1,0,0,4.083Zm0,0" transform="translate(-95.5 -243.524)"/><path class="a" d="M122.042,250.083h12.25a2.042,2.042,0,1,0,0-4.083h-12.25a2.042,2.042,0,1,0,0,4.083Zm0,0" transform="translate(-95.5 -195.775)"/><path class="a" d="M122.042,370.083h12.25a2.042,2.042,0,1,0,0-4.083h-12.25a2.042,2.042,0,1,0,0,4.083Zm0,0" transform="translate(-95.5 -291.274)"/></svg>