<svg xmlns="http://www.w3.org/2000/svg" width="113.18" height="101.243" viewBox="0 0 113.18 101.243"><defs><style>.a{fill:#83af40;}</style></defs><g transform="translate(0 0)"><g transform="translate(24.336 30.506)"><path class="a" d="M154.184,200.328a2.216,2.216,0,0,0-.954-.066l-.112,0a15.381,15.381,0,0,0,4.656-11.03V167.211a2.211,2.211,0,0,0-2.211-2.21H139.189a12.288,12.288,0,0,0-12.274,12.274v11.952a15.381,15.381,0,0,0,4.656,11.03l-.112,0a2.22,2.22,0,0,0-.954.066,22.467,22.467,0,0,0-20.415,22.345v10.854a2.211,2.211,0,0,0,2.211,2.211h60.088a2.211,2.211,0,0,0,2.211-2.211V222.673A22.468,22.468,0,0,0,154.184,200.328Zm-22.849-19.957v-3.1h0a7.862,7.862,0,0,1,7.853-7.853h14.164v5.916a5.427,5.427,0,0,1-5.421,5.421h-16.6Zm0,8.856v-4.048h16.6a9.783,9.783,0,0,0,5.421-1.633v5.681a11.009,11.009,0,0,1-22.017,0Zm16.88,15.43-5.871,5.871-5.871-5.871Zm21.963,26.66H114.511v-6.362H132.55a2.211,2.211,0,0,0,0-4.421H114.642a18.046,18.046,0,0,1,15.714-15.741l10.425,10.425a2.211,2.211,0,0,0,3.126,0l10.425-10.425a18.039,18.039,0,0,1,15.846,17.881Z" transform="translate(-110.09 -165)"/></g><g transform="translate(54.379 86.039)"><path class="a" d="M249.773,416.868a2.209,2.209,0,1,0,.648,1.563A2.227,2.227,0,0,0,249.773,416.868Z" transform="translate(-246 -416.22)"/></g><g transform="translate(48.218 0)"><path class="a" d="M226.527,27a8.4,8.4,0,0,0-2.211,16.5v5.4a2.211,2.211,0,0,0,4.421,0V43.5A8.4,8.4,0,0,0,226.527,27Zm0,12.379a3.979,3.979,0,1,1,3.979-3.979A3.984,3.984,0,0,1,226.527,39.379Z" transform="translate(-218.127 -27)"/></g><g transform="translate(83.299 14.782)"><path class="a" d="M394.522,96.331a8.4,8.4,0,0,0-13.232,10.106l-3.818,3.818a2.211,2.211,0,0,0,3.126,3.126l3.816-3.816a8.4,8.4,0,0,0,10.108-13.234Zm-3.126,8.754a3.979,3.979,0,1,1,1.166-2.814A3.983,3.983,0,0,1,391.4,105.085Z" transform="translate(-376.824 -93.871)"/></g><g transform="translate(89.068 53.237)"><path class="a" d="M418.634,267.833a8.414,8.414,0,0,0-8.1,6.19h-5.4a2.211,2.211,0,1,0,0,4.421h5.4a8.4,8.4,0,1,0,8.1-10.611Zm0,12.379a3.979,3.979,0,1,1,3.979-3.979A3.984,3.984,0,0,1,418.634,280.212Z" transform="translate(-402.922 -267.833)"/></g><g transform="translate(80.685 59.426)"><path class="a" d="M368.773,296.478a2.209,2.209,0,1,0,.648,1.563A2.226,2.226,0,0,0,368.773,296.478Z" transform="translate(-365 -295.83)"/></g><g transform="translate(0 53.181)"><path class="a" d="M21.9,273.768H16.5a8.4,8.4,0,1,0,0,4.421h5.4a2.211,2.211,0,0,0,0-4.421Zm-13.5,6.19a3.979,3.979,0,1,1,3.979-3.979A3.984,3.984,0,0,1,8.4,279.958Z" transform="translate(0 -267.579)"/></g><g transform="translate(9.593 14.569)"><path class="a" d="M62.905,109.291l-3.816-3.816a8.4,8.4,0,1,0-3.126,3.126l3.816,3.816a2.211,2.211,0,0,0,3.126-3.126Zm-8.3-5.171h0a3.979,3.979,0,1,1,1.166-2.814A3.982,3.982,0,0,1,54.608,104.121Z" transform="translate(-43.399 -92.907)"/></g></g></svg>