<svg xmlns="http://www.w3.org/2000/svg" width="24.94" height="22.164" viewBox="0 0 24.94 22.164"><defs><style>.a{fill:#fff;}</style></defs><path class="a" d="M17.515,11.269c-3.444,0-6.246,2.491-6.246,5.552s2.8,5.552,6.246,5.552,6.246-2.49,6.246-5.552S20.959,11.269,17.515,11.269Z" transform="translate(-5.046 -5.738)"/><g transform="translate(11.251)"><path class="a" d="M21.592,3.9a1.157,1.157,0,0,1-1.219-1.083V1.083a1.227,1.227,0,0,1,2.438,0V2.816A1.157,1.157,0,0,1,21.592,3.9Z" transform="translate(-20.373)"/></g><g transform="translate(11.251 18.265)"><path class="a" d="M21.592,37.215A1.157,1.157,0,0,0,20.373,38.3v1.733a1.227,1.227,0,0,0,2.438,0V38.3A1.157,1.157,0,0,0,21.592,37.215Z" transform="translate(-20.373 -37.215)"/></g><g transform="translate(17.828 2.929)"><path class="a" d="M32.639,9.041a1,1,0,0,1,0-1.532l1.379-1.226a1.33,1.33,0,0,1,1.724,0,1,1,0,0,1,0,1.532L34.362,9.041A1.329,1.329,0,0,1,32.639,9.041Z" transform="translate(-32.282 -5.967)"/></g><g transform="translate(3.295 15.844)"><path class="a" d="M9.426,32.6a1.328,1.328,0,0,0-1.724,0L6.324,33.825a1,1,0,0,0,0,1.532,1.33,1.33,0,0,0,1.724,0l1.379-1.226A1,1,0,0,0,9.426,32.6Z" transform="translate(-5.967 -32.283)"/></g><g transform="translate(20.552 9.999)"><path class="a" d="M37.215,21.456a1.157,1.157,0,0,1,1.219-1.083h1.95a1.091,1.091,0,1,1,0,2.166h-1.95A1.157,1.157,0,0,1,37.215,21.456Z" transform="translate(-37.215 -20.373)"/></g><g transform="translate(0 9.999)"><path class="a" d="M4.387,21.456a1.157,1.157,0,0,0-1.219-1.083H1.219a1.091,1.091,0,1,0,0,2.166h1.95A1.156,1.156,0,0,0,4.387,21.456Z" transform="translate(0 -20.373)"/></g><g transform="translate(17.827 15.845)"><path class="a" d="M32.639,32.6a1.33,1.33,0,0,1,1.724,0l1.379,1.226a1,1,0,0,1,0,1.531,1.33,1.33,0,0,1-1.724,0l-1.379-1.226A1,1,0,0,1,32.639,32.6Z" transform="translate(-32.282 -32.284)"/></g><g transform="translate(3.295 2.929)"><path class="a" d="M9.426,9.042a1,1,0,0,0,0-1.532L8.047,6.285a1.329,1.329,0,0,0-1.724,0,1,1,0,0,0,0,1.531L7.7,9.042A1.328,1.328,0,0,0,9.426,9.042Z" transform="translate(-5.966 -5.968)"/></g></svg>