<svg xmlns="http://www.w3.org/2000/svg" width="52.846" height="52.846" viewBox="0 0 52.846 52.846"><defs><style>.a{fill:none;}.b{fill:#83af40;}</style></defs><path class="a" d="M0,0H52.846V52.846H0ZM0,0H52.846V52.846H0Z"/><path class="b" d="M27.687,2.593l-12.2,12.2a4.4,4.4,0,0,0-1.277,3.1v22a4.417,4.417,0,0,0,4.4,4.4H38.432a4.435,4.435,0,0,0,4.051-2.664l7.178-16.756a6.616,6.616,0,0,0-6.077-9.2H31.144L33.236,5.588a3.32,3.32,0,0,0-.9-3.017,3.276,3.276,0,0,0-4.646.022ZM5.4,44.3a4.417,4.417,0,0,0,4.4-4.4V22.278a4.4,4.4,0,1,0-8.808,0V39.894A4.417,4.417,0,0,0,5.4,44.3Z" transform="translate(1.202 1.943)"/></svg>