<svg xmlns="http://www.w3.org/2000/svg" width="155.967" height="87.458" viewBox="0 0 155.967 87.458"><defs><style>.a{fill:#cead28;}</style></defs><g transform="translate(0 0)"><path class="a" d="M57.79,195.814a13.028,13.028,0,1,0,13.017,13.038A13.022,13.022,0,0,0,57.79,195.814Zm0,19.547a6.509,6.509,0,1,1,6.509-6.509A6.516,6.516,0,0,1,57.79,215.361Zm98.176-29.177v13.9a6.278,6.278,0,0,1-6.278,6.278H142.97a17.227,17.227,0,0,0-34.091,0H74.83a17.215,17.215,0,0,0-34.07,0H32.346a6.278,6.278,0,0,1-6.278-6.278v-13.9Zm-30.036,9.63a13.028,13.028,0,1,0,13.017,13.038A13.04,13.04,0,0,0,125.931,195.814Zm0,19.547a6.509,6.509,0,1,1,6.509-6.509A6.516,6.516,0,0,1,125.931,215.361Zm27.562-43.174-24.674-24.4a8.387,8.387,0,0,0-5.881-2.428H110.487V140.69a6.27,6.27,0,0,0-6.278-6.278H32.342a6.283,6.283,0,0,0-6.278,6.278v.984L.586,144.61l45.145,5.879L0,155.032l45.57,6.479L0,165.462l26.065,4.916,0,12.335h129.9V178.13A8.411,8.411,0,0,0,153.493,172.187ZM142.736,173H118.858a.982.982,0,0,1-.984-.983V153.582a.983.983,0,0,1,.984-.984H123.4a1.061,1.061,0,0,1,.691.272l19.316,18.437A.982.982,0,0,1,142.736,173Z" transform="translate(0 -134.412)"/></g></svg>