<svg xmlns="http://www.w3.org/2000/svg" width="38.312" height="38.219" viewBox="0 0 38.312 38.219"><defs><style>.a{fill:#83af40;}</style></defs><path class="a" d="M15.3,34.316V38.2l-.938-.758A62.9,62.9,0,0,1,7.272,30.5C2.446,24.965,0,19.992,0,15.724V15.3a15.3,15.3,0,1,1,30.6,0v.423c0,.358-.019.722-.053,1.091l-2.993-2.73A12.317,12.317,0,0,0,2.986,15.3v.423c0,7.211,9.291,15.94,12.317,18.591Zm9.181-2.145h4.479V27.693H24.484ZM15.3,8.957A6.345,6.345,0,1,1,8.957,15.3,6.352,6.352,0,0,1,15.3,8.957Zm0,2.986A3.359,3.359,0,1,0,18.661,15.3,3.363,3.363,0,0,0,15.3,11.942Zm21,18.2-.839-.766V34.17a4.053,4.053,0,0,1-4.048,4.048H21.959a4.053,4.053,0,0,1-4.048-4.048V29.377l-.839.766-2.012-2.206L26.685,17.33,38.312,27.937Zm-3.825-3.49-5.789-5.281L20.9,26.653V34.17a1.063,1.063,0,0,0,1.062,1.062h9.453a1.063,1.063,0,0,0,1.062-1.062Zm0,0" transform="translate(0 0.001)"/></svg>