<svg xmlns="http://www.w3.org/2000/svg" width="36.408" height="38.973" viewBox="0 0 36.408 38.973"><defs><style>.a{fill:#83af40;stroke:#83af40;stroke-width:0.5px;}</style></defs><g transform="translate(0.25 0.25)"><path class="a" d="M37.266,2.565H32.778V.641A.641.641,0,0,0,32.137,0H27.648a.641.641,0,0,0-.641.641V2.565H12.9V.641A.641.641,0,0,0,12.259,0H7.771A.641.641,0,0,0,7.13.641V2.565H2.641A.641.641,0,0,0,2,3.206V37.831a.641.641,0,0,0,.641.641H37.266a.641.641,0,0,0,.641-.641V3.206A.641.641,0,0,0,37.266,2.565ZM28.29,1.282H31.5V5.13H28.29V1.282Zm-19.877,0h3.206V5.13H8.412V1.282ZM3.282,3.847H7.13V5.771a.641.641,0,0,0,.641.641h4.488a.641.641,0,0,0,.641-.641V3.847H27.007V5.771a.641.641,0,0,0,.641.641h4.488a.641.641,0,0,0,.641-.641V3.847h3.847V9.618H3.282Zm0,33.343V10.9H36.625V37.19Z" transform="translate(-2)"/><path class="a" d="M28.313,23H11V41.6H35.366V23H28.313Zm-4.488,1.282h4.488v4.488H23.824Zm4.488,10.259H23.824V30.053h4.488ZM18.053,30.053h4.488v4.488H18.053Zm0-5.771h4.488v4.488H18.053Zm-5.771,0h4.488v4.488H12.282Zm0,5.771h4.488v4.488H12.282Zm4.488,10.259H12.282V35.824h4.488Zm5.771,0H18.053V35.824h4.488Zm5.771,0H23.824V35.824h4.488Zm5.771,0H29.6V35.824h4.488Zm0-5.771H29.6V30.053h4.488Zm0-10.259v4.488H29.6V24.282Z" transform="translate(-4.273 -8.252)"/></g></svg>