<svg xmlns="http://www.w3.org/2000/svg" width="42.622" height="32.998" viewBox="0 0 42.622 32.998"><defs><style>.a{fill:#83af40;}</style></defs><path class="a" d="M15,29h1.375v1.375H15Z" transform="translate(-5.376 -13.876)"/><path class="a" d="M21,29h1.375v1.375H21Z" transform="translate(-7.251 -13.876)"/><path class="a" d="M40.184,7H4.437A3.437,3.437,0,0,0,1,10.437V36.56A3.437,3.437,0,0,0,4.437,40H40.184a3.437,3.437,0,0,0,3.437-3.437V10.437A3.437,3.437,0,0,0,40.184,7Zm2.062,29.56a2.069,2.069,0,0,1-2.062,2.062H4.437A2.069,2.069,0,0,1,2.375,36.56V12.5H42.247Zm0-25.436H2.375v-.687A2.069,2.069,0,0,1,4.437,8.375H40.184a2.069,2.069,0,0,1,2.062,2.062Z" transform="translate(-1 -7)"/><path class="a" d="M21.021,33.849l-3.334-1.485v-.983A5.541,5.541,0,0,0,20.258,28h.179a2.062,2.062,0,0,0,0-4.125V22.5a5.5,5.5,0,1,0-11,0v1.375a2.062,2.062,0,0,0,0,4.125h.179a5.541,5.541,0,0,0,2.571,3.382v.983L8.853,33.849A4.812,4.812,0,0,0,6,38.242v1.444a.687.687,0,0,0,.687.687h16.5a.687.687,0,0,0,.687-.687V38.242A4.812,4.812,0,0,0,21.021,33.849Zm-.584-8.6a.687.687,0,0,1,0,1.375Zm-11,1.375a.687.687,0,0,1,0-1.375Zm8.614,7.4-.165.646L16.8,34.31l-.254-.5.467-.234ZM10.812,22.5a4.125,4.125,0,1,1,8.249,0v.667a1.381,1.381,0,0,1-1.1-1.017l-.3-1.189a.687.687,0,0,0-1.354.165,2.069,2.069,0,0,1-2.062,2.062H10.812Zm0,4.125V24.562h3.437a3.445,3.445,0,0,0,2.7-1.313,2.743,2.743,0,0,0,2.11,1.3v2.076a4.125,4.125,0,1,1-8.249,0Zm2.049,6.95.467.234-.254.5-1.086.364-.165-.646ZM12.359,39H7.375v-.756A3.437,3.437,0,0,1,9.417,35.1l1.134-.5.282,1.127a.7.7,0,0,0,.337.44.688.688,0,0,0,.33.082.814.814,0,0,0,.22-.034l1.622-.543ZM13.8,39l.66-2.262a.681.681,0,0,0,.962,0L16.078,39Zm.6-4.262.275-.55H15.2l.275.55-.536.543Zm1.911-2.351-.852.426H14.414l-.852-.426v-.44a5.377,5.377,0,0,0,2.75,0ZM22.5,39H17.515l-.983-3.327,1.622.543a.814.814,0,0,0,.22.034.688.688,0,0,0,.33-.082.7.7,0,0,0,.337-.44l.282-1.127,1.134.5A3.437,3.437,0,0,1,22.5,38.242Z" transform="translate(-2.563 -10.126)"/><path class="a" d="M34,18h2.75v1.375H34Z" transform="translate(-11.314 -10.438)"/><path class="a" d="M42,18h1.375v1.375H42Z" transform="translate(-13.815 -10.438)"/><path class="a" d="M46,18h1.375v1.375H46Z" transform="translate(-15.065 -10.438)"/><path class="a" d="M50,18h1.375v1.375H50Z" transform="translate(-16.315 -10.438)"/><path class="a" d="M54,18h1.375v1.375H54Z" transform="translate(-17.565 -10.438)"/><path class="a" d="M34,31h4.125v1.375H34Z" transform="translate(-11.314 -14.501)"/><path class="a" d="M42,27h2.75v1.375H42Z" transform="translate(-13.815 -13.251)"/><path class="a" d="M48,27h5.5v1.375H48Z" transform="translate(-15.69 -13.251)"/><path class="a" d="M42,31h9.624v1.375H42Z" transform="translate(-13.815 -14.501)"/><path class="a" d="M42,37h1.375v1.375H42Z" transform="translate(-13.815 -16.377)"/><path class="a" d="M46,37h1.375v1.375H46Z" transform="translate(-15.065 -16.377)"/><path class="a" d="M50,37h1.375v1.375H50Z" transform="translate(-16.315 -16.377)"/><path class="a" d="M54,37h1.375v1.375H54Z" transform="translate(-17.565 -16.377)"/><path class="a" d="M42,48h2.75v1.375H42Z" transform="translate(-13.815 -19.815)"/><path class="a" d="M48,48h2.75v1.375H48Z" transform="translate(-15.69 -19.815)"/><path class="a" d="M54,48h1.375v1.375H54Z" transform="translate(-17.565 -19.815)"/></svg>