<svg xmlns="http://www.w3.org/2000/svg" width="26.043" height="44.11" viewBox="0 0 26.043 44.11"><defs><style>.a{fill:none;stroke:#83af40;}</style></defs><g transform="translate(0.5 0.5)"><path class="a" d="M29.465,0H10.246A2.92,2.92,0,0,0,7.334,2.912V40.2a2.921,2.921,0,0,0,2.912,2.913h19.22A2.919,2.919,0,0,0,32.377,40.2V2.912A2.92,2.92,0,0,0,29.465,0ZM16.781,2.1H22.93a.353.353,0,0,1,0,.706H16.781a.353.353,0,0,1,0-.706Zm3.074,39.555A1.456,1.456,0,1,1,21.311,40.2,1.456,1.456,0,0,1,19.856,41.654Zm10.5-3.933H9.36V4.618H30.351Z" transform="translate(-7.334)"/></g></svg>